<svg width="298" height="114" viewBox="0 0 298 114" fill="none" xmlns="http://www.w3.org/2000/svg">
<g clip-path="url(#clip0_4_3)">
<path d="M15.3 36.77C11.5 36.77 6.88 37.21 3 38.09V44.39C6.88 43.37 11.71 43 14.86 43C20.86 43 25.47 44.61 25.47 51.2V53.32C23.06 53.1 21.15 52.88 18.74 52.88C4.1 52.88 0 58.22 0 64.96C0 73.89 7.25 76.52 13.39 76.52C19.1 76.52 22.69 74.4 25.62 71.54V75.79H32.35V50.24C32.35 39.7 24.73 36.77 15.3 36.77ZM25.48 65.54C23.14 68.25 19.04 70.52 14.87 70.52C11.28 70.52 7.26 68.91 7.26 64.3C7.26 60.42 10.19 58.22 18.24 58.22C19.63 58.22 22.34 58.29 25.48 58.81V65.54Z" fill="#3C1053"/>
<path d="M59.87 55.88L72.39 37.8H65.07L55.84 51.41L46.4 37.8H38.72L51.45 56.38L37.91 75.79H45.52L55.55 60.78L65.65 75.79H73.63L59.87 55.88Z" fill="#3C1053"/>
<path d="M87.04 37.8H80.16V75.79H87.04V37.8Z" fill="#3C1053"/>
<path d="M114.49 70.3C109.95 70.3 107.03 68.76 107.03 63.78V44.02H120.93V37.8H107.03V26.97H100.37L100.15 37.8H93.64V44.02H100.15V64.66C100.15 74.1 106.22 76.52 113.03 76.52C115.45 76.52 118.81 76.15 121.74 75.42V69.12C119.62 70 116.61 70.29 114.49 70.29" fill="#3C1053"/>
<path d="M155.18 37.8V67.88C152.18 68.98 148.52 69.27 146.1 69.27C139.67 69.27 134.83 67.65 134.83 61.15V37.8H127.95V62.68C127.95 73 135.94 75.5 144.57 75.5C147.72 75.5 151.52 75.13 155.18 74.33V76.96C155.18 82.97 151.37 84.94 143.62 84.94C139.3 84.94 133.08 84.21 130.01 83.33V89.55C134.54 90.72 138.71 91.16 143.03 91.16C155.33 91.16 161.99 87.5 161.99 76.45V37.8H155.18Z" fill="#3C1053"/>
<path d="M87.25 26.33C87.25 28.35 85.61 29.99 83.59 29.99C81.57 29.99 79.94 28.35 79.94 26.33C79.94 24.31 81.58 22.68 83.59 22.68C85.6 22.68 87.25 24.32 87.25 26.33Z" fill="#3C1053"/>
<path d="M259.47 10.18L249.63 16.8C249.46 15.73 248.81 14.83 247.91 14.31L257.74 7.69C257.9 8.76 258.56 9.66 259.48 10.17" fill="#C9C9C9"/>
<path d="M291.63 48.07C290.78 48.74 290.3 49.76 290.3 50.79L279.57 45.73C280.41 45.05 280.88 44.04 280.88 43.01L291.62 48.08L291.63 48.07Z" fill="#C9C9C9"/>
<path d="M273.02 97.13C272.02 96.74 270.91 96.85 270.01 97.36L269.1 85.69C270.11 86.07 271.21 85.96 272.11 85.46L273.02 97.12V97.13Z" fill="#C9C9C9"/>
<path d="M230.41 99.22L220.58 105.84C220.41 104.77 219.76 103.87 218.84 103.36L228.67 96.74C228.85 97.81 229.5 98.7 230.4 99.22" fill="#C9C9C9"/>
<path d="M188.01 62.75L198.74 67.81C197.9 68.49 197.43 69.5 197.42 70.53L186.68 65.46C187.54 64.79 188 63.77 188 62.74" fill="#C9C9C9"/>
<path d="M206.19 28.07L205.28 16.4C206.29 16.79 207.4 16.67 208.3 16.17L209.2 27.83C208.19 27.46 207.08 27.56 206.18 28.07" fill="#C9C9C9"/>
<path d="M230.4 14.31C229.5 14.83 228.84 15.72 228.67 16.79L218.83 10.17C219.75 9.66 220.41 8.76 220.57 7.69L230.4 14.31Z" fill="#C9C9C9"/>
<path d="M198.74 45.71L188.01 50.78C188.01 49.75 187.55 48.73 186.68 48.06L197.42 43C197.43 44.03 197.89 45.03 198.74 45.71Z" fill="#C9C9C9"/>
<path d="M209.21 85.69L208.3 97.36C207.4 96.85 206.29 96.75 205.29 97.13L206.2 85.46C207.1 85.96 208.21 86.07 209.22 85.69" fill="#C9C9C9"/>
<path d="M259.47 103.35C258.56 103.86 257.89 104.76 257.73 105.84L247.9 99.22C248.8 98.7 249.46 97.8 249.62 96.73L259.46 103.35H259.47Z" fill="#C9C9C9"/>
<path d="M291.63 65.46L280.89 70.53C280.89 69.5 280.42 68.49 279.57 67.81L290.31 62.74C290.31 63.78 290.77 64.79 291.63 65.46Z" fill="#C9C9C9"/>
<path d="M273.02 16.4L272.11 28.07C271.21 27.57 270.1 27.47 269.1 27.83L270.01 16.17C270.91 16.68 272.02 16.79 273.02 16.4Z" fill="#C9C9C9"/>
<path d="M246.2 20.92C246.7 20.9 247.17 20.79 247.6 20.59V27.91C247.12 27.66 246.57 27.52 245.99 27.54C245.48 27.56 245 27.69 244.58 27.91V20.59C245.07 20.83 245.62 20.94 246.21 20.93" fill="#C9C9C9"/>
<path d="M275.23 45.88L268.78 49.54C268.78 49 268.61 48.45 268.3 47.96C268.02 47.52 267.66 47.18 267.24 46.93L273.7 43.26C273.74 43.8 273.91 44.35 274.22 44.84C274.49 45.26 274.83 45.61 275.22 45.88" fill="#C9C9C9"/>
<path d="M268.3 79.46C267.84 79.77 267.46 80.19 267.18 80.7C266.95 81.14 266.8 81.6 266.77 82.06L260.32 78.4C260.79 78.11 261.19 77.71 261.47 77.19C261.71 76.74 261.84 76.26 261.85 75.78L268.3 79.45V79.46Z" fill="#C9C9C9"/>
<path d="M233.75 85.62V92.95C233.26 92.72 232.7 92.59 232.12 92.61C231.62 92.63 231.16 92.75 230.73 92.94V85.63C231.2 85.88 231.75 86.02 232.33 86C232.84 85.98 233.33 85.85 233.75 85.62Z" fill="#C9C9C9"/>
<path d="M211.07 66.59L204.62 70.26C204.58 69.72 204.41 69.18 204.1 68.69C203.83 68.27 203.49 67.92 203.1 67.65L209.55 63.98C209.56 64.52 209.72 65.07 210.03 65.56C210.3 65.99 210.66 66.34 211.08 66.59" fill="#C9C9C9"/>
<path d="M218 35.13C217.53 35.41 217.12 35.82 216.85 36.33C216.61 36.78 216.48 37.26 216.47 37.74L210.02 34.08C210.47 33.77 210.86 33.36 211.14 32.85C211.38 32.41 211.51 31.93 211.56 31.46L218.01 35.13H218Z" fill="#C9C9C9"/>
<path d="M233.75 20.58V27.9C233.33 27.68 232.84 27.54 232.33 27.53C231.75 27.51 231.2 27.65 230.73 27.9V20.59C231.16 20.78 231.63 20.9 232.12 20.91C232.71 20.93 233.26 20.81 233.75 20.57" fill="#C9C9C9"/>
<path d="M211.07 46.93C210.65 47.19 210.29 47.53 210.02 47.96C209.71 48.45 209.55 49 209.54 49.54L203.1 45.88C203.49 45.61 203.83 45.27 204.1 44.84C204.41 44.35 204.58 43.81 204.62 43.27L211.07 46.93Z" fill="#C9C9C9"/>
<path d="M217.99 78.4L211.54 82.06C211.5 81.6 211.37 81.13 211.13 80.69C210.85 80.18 210.47 79.76 210.01 79.45L216.46 75.78C216.47 76.26 216.6 76.74 216.84 77.19C217.11 77.7 217.51 78.11 217.99 78.4Z" fill="#C9C9C9"/>
<path d="M247.59 85.62V92.94C247.16 92.74 246.69 92.63 246.19 92.61C245.61 92.59 245.06 92.71 244.56 92.94V85.62C244.98 85.84 245.46 85.98 245.97 85.99C246.55 86.01 247.1 85.87 247.58 85.62" fill="#C9C9C9"/>
<path d="M268.78 63.98L275.22 67.65C274.83 67.91 274.49 68.26 274.22 68.68C273.91 69.17 273.74 69.72 273.7 70.26L267.24 66.59C267.66 66.35 268.03 66 268.3 65.56C268.61 65.07 268.77 64.52 268.78 63.98Z" fill="#C9C9C9"/>
<path d="M268.3 34.07L261.85 37.73C261.84 37.26 261.71 36.77 261.47 36.33C261.19 35.81 260.79 35.41 260.32 35.13L266.77 31.46C266.81 31.93 266.95 32.4 267.19 32.84C267.47 33.35 267.85 33.76 268.31 34.07" fill="#C9C9C9"/>
<path d="M249.27 30.57C249.32 32.3 247.94 33.76 246.18 33.81C244.42 33.87 242.94 32.51 242.89 30.77C242.84 29.03 244.22 27.58 245.98 27.53C247.74 27.47 249.21 28.83 249.27 30.57Z" fill="#FF0063"/>
<path d="M267.26 52.29C265.76 53.21 263.79 52.75 262.87 51.28C261.94 49.8 262.4 47.87 263.9 46.95C265.39 46.04 267.36 46.5 268.3 47.97C269.23 49.44 268.76 51.38 267.27 52.29" fill="#FF0063"/>
<path d="M257.15 78.48C255.59 77.66 255.01 75.75 255.85 74.23C256.68 72.7 258.62 72.12 260.17 72.94C261.73 73.76 262.31 75.67 261.48 77.2C260.65 78.73 258.71 79.31 257.16 78.49" fill="#FF0063"/>
<path d="M229.04 82.96C228.98 81.22 230.37 79.77 232.13 79.72C233.89 79.66 235.37 81.02 235.42 82.76C235.47 84.49 234.1 85.95 232.33 86C230.57 86.06 229.09 84.7 229.04 82.96Z" fill="#FF0063"/>
<path d="M229.04 30.57C228.98 32.3 230.37 33.76 232.13 33.81C233.89 33.87 235.37 32.51 235.42 30.77C235.48 29.03 234.1 27.58 232.33 27.53C230.57 27.47 229.09 28.83 229.04 30.57Z" fill="#FF0063"/>
<path d="M211.04 52.29C212.54 53.21 214.51 52.75 215.44 51.28C216.37 49.8 215.91 47.87 214.41 46.95C212.91 46.04 210.94 46.5 210.01 47.97C209.08 49.44 209.54 51.38 211.03 52.29" fill="#FF0063"/>
<path d="M221.17 78.48C222.72 77.66 223.31 75.75 222.47 74.23C221.63 72.7 219.7 72.12 218.15 72.94C216.59 73.76 216.01 75.67 216.85 77.2C217.68 78.73 219.62 79.31 221.17 78.49" fill="#FF0063"/>
<path d="M279.19 45.99C277.5 47.02 275.28 46.5 274.22 44.84C273.17 43.17 273.69 40.98 275.38 39.95C277.08 38.92 279.3 39.43 280.35 41.1C281.39 42.77 280.88 44.95 279.18 45.99" fill="#FF0063"/>
<path d="M199.13 67.54C200.82 66.51 203.04 67.03 204.09 68.69C205.14 70.36 204.61 72.55 202.92 73.57C201.22 74.61 199.01 74.09 197.95 72.43C196.9 70.77 197.43 68.58 199.12 67.54" fill="#FF0063"/>
<path d="M209.65 28.03C211.4 28.96 212.06 31.11 211.12 32.84C210.18 34.57 207.99 35.21 206.24 34.29C204.48 33.36 203.82 31.21 204.76 29.48C205.7 27.76 207.89 27.1 209.64 28.03" fill="#FF0063"/>
<path d="M228.63 17.26C228.57 19.22 230.13 20.85 232.12 20.92C234.11 20.98 235.77 19.44 235.84 17.49C235.9 15.53 234.33 13.89 232.34 13.83C230.35 13.76 228.68 15.3 228.62 17.27" fill="#FF0063"/>
<path d="M249.69 96.27C249.75 94.32 248.19 92.68 246.19 92.61C244.2 92.55 242.54 94.09 242.47 96.05C242.41 98.01 243.97 99.65 245.96 99.71C247.95 99.78 249.62 98.24 249.68 96.27" fill="#FF0063"/>
<path d="M270.1 103.4C268.39 102.5 267.75 100.4 268.66 98.72C269.58 97.04 271.71 96.4 273.42 97.3C275.13 98.21 275.77 100.31 274.86 101.99C273.94 103.67 271.81 104.31 270.1 103.4Z" fill="#FF0063"/>
<path d="M190.28 32.63C191.78 33.54 193.75 33.08 194.67 31.61C195.6 30.14 195.14 28.2 193.64 27.28C192.15 26.37 190.17 26.82 189.24 28.3C188.31 29.77 188.78 31.71 190.27 32.63" fill="#FF0063"/>
<path d="M182.64 53.7C184.29 54.71 186.45 54.21 187.48 52.59C188.5 50.96 187.99 48.83 186.35 47.82C184.69 46.82 182.53 47.31 181.5 48.94C180.48 50.56 180.98 52.7 182.64 53.7Z" fill="#FF0063"/>
<path d="M208.21 103.4C209.92 102.5 210.56 100.4 209.64 98.72C208.73 97.04 206.59 96.4 204.89 97.3C203.18 98.21 202.54 100.31 203.46 101.99C204.37 103.67 206.5 104.31 208.21 103.4Z" fill="#FF0063"/>
<path d="M242.34 110.49C242.4 108.75 241.02 107.3 239.25 107.25C237.49 107.19 236.02 108.55 235.96 110.29C235.91 112.02 237.28 113.47 239.05 113.52C240.81 113.58 242.29 112.22 242.34 110.48" fill="#FF0063"/>
<path d="M288.02 80.91C286.52 80 284.56 80.45 283.63 81.93C282.7 83.41 283.16 85.34 284.66 86.25C286.15 87.17 288.12 86.71 289.05 85.24C289.98 83.77 289.52 81.83 288.02 80.92" fill="#FF0063"/>
<path d="M295.67 59.83C294.02 58.82 291.86 59.32 290.83 60.94C289.81 62.57 290.32 64.7 291.96 65.71C293.61 66.71 295.78 66.22 296.81 64.59C297.83 62.97 297.33 60.84 295.67 59.84" fill="#FF0063"/>
<path d="M284.83 27.18C283.27 28 282.69 29.91 283.52 31.44C284.36 32.96 286.29 33.54 287.85 32.72C289.4 31.9 289.99 30 289.15 28.47C288.32 26.95 286.38 26.37 284.83 27.18Z" fill="#FF0063"/>
<path d="M270.1 10.12C268.39 11.02 267.75 13.12 268.66 14.8C269.58 16.48 271.71 17.12 273.42 16.22C275.13 15.32 275.77 13.22 274.86 11.54C273.94 9.84999 271.81 9.21999 270.1 10.12Z" fill="#FF0063"/>
<path d="M244.6 46.81C246.29 47.84 248.51 47.32 249.57 45.66C250.62 43.99 250.09 41.8 248.4 40.77C246.71 39.73 244.49 40.25 243.44 41.92C242.39 43.59 242.91 45.77 244.6 46.81Z" fill="#FF0063"/>
<path d="M244.6 72.52C246.29 73.55 248.51 73.03 249.57 71.37C250.62 69.7 250.09 67.51 248.4 66.48C246.71 65.44 244.49 65.96 243.44 67.63C242.39 69.3 242.91 71.48 244.6 72.52Z" fill="#FF0063"/>
<path d="M222.41 59.66C224.1 60.69 226.32 60.17 227.37 58.52C228.42 56.85 227.89 54.66 226.2 53.63C224.51 52.6 222.29 53.11 221.23 54.78C220.18 56.45 220.7 58.63 222.4 59.67" fill="#FF0063"/>
<path d="M257.15 35.05C255.59 35.88 255.01 37.78 255.85 39.31C256.68 40.83 258.62 41.41 260.17 40.59C261.73 39.77 262.31 37.86 261.48 36.34C260.65 34.81 258.71 34.23 257.16 35.05" fill="#A032C3"/>
<path d="M211.05 61.24C212.55 60.32 214.52 60.78 215.45 62.25C216.38 63.73 215.91 65.66 214.42 66.58C212.92 67.5 210.95 67.04 210.02 65.57C209.09 64.1 209.55 62.16 211.05 61.25" fill="#A032C3"/>
<path d="M221.17 35.05C222.72 35.88 223.31 37.78 222.47 39.31C221.63 40.83 219.7 41.41 218.15 40.59C216.59 39.77 216.01 37.86 216.85 36.34C217.68 34.81 219.62 34.23 221.17 35.05Z" fill="#A032C3"/>
<path d="M249.27 82.96C249.32 81.22 247.94 79.77 246.18 79.72C244.42 79.66 242.94 81.02 242.89 82.76C242.84 84.49 244.22 85.95 245.98 86C247.74 86.06 249.21 84.7 249.27 82.96Z" fill="#A032C3"/>
<path d="M267.26 61.24C265.76 60.32 263.79 60.78 262.86 62.25C261.93 63.73 262.4 65.66 263.89 66.58C265.38 67.5 267.35 67.04 268.29 65.57C269.22 64.1 268.75 62.16 267.26 61.25" fill="#A032C3"/>
<path d="M249.69 17.26C249.75 19.22 248.19 20.85 246.2 20.92C244.21 20.98 242.54 19.44 242.48 17.49C242.42 15.53 243.98 13.89 245.98 13.83C247.97 13.76 249.64 15.3 249.7 17.27" fill="#A032C3"/>
<path d="M268.66 85.49C266.9 84.57 266.24 82.42 267.18 80.69C268.12 78.96 270.31 78.31 272.06 79.23C273.81 80.16 274.48 82.31 273.53 84.04C272.59 85.76 270.41 86.42 268.65 85.48" fill="#A032C3"/>
<path d="M228.63 96.27C228.57 94.32 230.13 92.68 232.12 92.61C234.11 92.55 235.78 94.09 235.84 96.05C235.9 98.01 234.33 99.65 232.34 99.71C230.36 99.78 228.68 98.24 228.62 96.27" fill="#A032C3"/>
<path d="M199.13 45.99C200.82 47.02 203.04 46.5 204.09 44.84C205.14 43.17 204.61 40.98 202.92 39.95C201.22 38.92 199.01 39.43 197.95 41.1C196.9 42.77 197.42 44.95 199.12 45.99" fill="#A032C3"/>
<path d="M209.65 85.49C211.4 84.57 212.06 82.42 211.12 80.69C210.18 78.96 207.99 78.31 206.24 79.23C204.48 80.16 203.82 82.31 204.76 84.04C205.71 85.76 207.89 86.42 209.65 85.48" fill="#A032C3"/>
<path d="M279.19 67.54C277.5 66.51 275.28 67.03 274.22 68.69C273.18 70.36 273.7 72.55 275.39 73.57C277.09 74.61 279.3 74.09 280.36 72.43C281.4 70.77 280.89 68.58 279.19 67.54Z" fill="#A032C3"/>
<path d="M268.66 28.03C266.9 28.96 266.25 31.11 267.19 32.84C268.13 34.57 270.32 35.21 272.07 34.29C273.83 33.36 274.49 31.21 273.55 29.48C272.61 27.76 270.43 27.1 268.67 28.03" fill="#A032C3"/>
<path d="M264.72 7.07C264.78 8.97 263.25 10.57 261.32 10.63C259.38 10.7 257.76 9.19 257.7 7.29C257.64 5.38 259.16 3.78 261.1 3.72C263.04 3.66 264.66 5.16 264.72 7.07Z" fill="#A032C3"/>
<path d="M295.67 53.7C294.02 54.71 291.86 54.21 290.83 52.59C289.81 50.96 290.32 48.83 291.97 47.82C293.62 46.82 295.78 47.31 296.81 48.94C297.83 50.56 297.33 52.7 295.67 53.7Z" fill="#A032C3"/>
<path d="M213.59 106.46C213.52 104.55 215.05 102.96 216.98 102.9C218.92 102.83 220.55 104.34 220.61 106.25C220.66 108.16 219.15 109.76 217.2 109.81C215.27 109.87 213.64 108.37 213.59 106.46Z" fill="#A032C3"/>
<path d="M182.64 59.83C184.29 58.82 186.45 59.32 187.48 60.94C188.5 62.57 187.99 64.7 186.35 65.71C184.7 66.71 182.53 66.22 181.5 64.59C180.48 62.97 180.98 60.84 182.64 59.84" fill="#A032C3"/>
<path d="M208.21 10.12C209.92 11.02 210.57 13.12 209.64 14.8C208.73 16.48 206.59 17.12 204.89 16.22C203.19 15.32 202.54 13.22 203.46 11.54C204.37 9.84999 206.5 9.21999 208.21 10.12Z" fill="#A032C3"/>
<path d="M235.97 3.04C235.91 4.77 237.29 6.22 239.06 6.28C240.82 6.34 242.29 4.98 242.35 3.24C242.41 1.51 241.03 0.0600005 239.26 4.97792e-07C237.5 -0.0499995 236.03 1.31 235.97 3.04Z" fill="#A032C3"/>
<path d="M213.59 7.07C213.52 8.97 215.05 10.57 216.98 10.63C218.92 10.7 220.55 9.19 220.61 7.29C220.66 5.38 219.15 3.78 217.2 3.72C215.26 3.66 213.64 5.16 213.59 7.07Z" fill="#A032C3"/>
<path d="M193.48 86.34C195.04 85.52 195.62 83.62 194.78 82.09C193.95 80.57 192.01 79.99 190.46 80.81C188.9 81.63 188.32 83.53 189.16 85.06C189.99 86.59 191.93 87.17 193.48 86.34Z" fill="#A032C3"/>
<path d="M264.72 106.46C264.77 104.55 263.25 102.96 261.32 102.9C259.38 102.83 257.76 104.34 257.69 106.25C257.63 108.16 259.16 109.76 261.09 109.81C263.03 109.87 264.65 108.37 264.71 106.46" fill="#A032C3"/>
<path d="M229.92 46.81C231.61 47.84 233.83 47.32 234.88 45.66C235.93 43.99 235.4 41.8 233.71 40.77C232.02 39.73 229.8 40.25 228.75 41.92C227.7 43.59 228.22 45.77 229.91 46.81" fill="#A032C3"/>
<path d="M229.92 72.52C231.61 73.55 233.83 73.03 234.88 71.37C235.93 69.7 235.4 67.51 233.71 66.48C232.02 65.44 229.8 65.96 228.75 67.63C227.7 69.3 228.22 71.48 229.91 72.52" fill="#A032C3"/>
<path d="M252.1 59.66C253.79 60.69 256.01 60.17 257.06 58.52C258.11 56.85 257.58 54.66 255.89 53.63C254.2 52.6 251.98 53.11 250.92 54.78C249.87 56.45 250.39 58.63 252.09 59.67" fill="#A032C3"/>
</g>
<defs>
<clipPath id="clip0_4_3">
<rect width="297.34" height="113.53" fill="white"/>
</clipPath>
</defs>
</svg>
